<svg xmlns="http://www.w3.org/2000/svg" viewBox="0 0 1200 1200"><defs><style>.cls-1{fill:#eb0203;}.cls-2{fill:#d80304;}.cls-3{fill:#fc0101;}.cls-4{fill:#fa0102;}.cls-5{fill:#1d1d1b;}</style></defs><g id="Capa_2" data-name="Capa 2"><path class="cls-1" d="M560,451c.15,2-1,4.39,3,4.25,3.53-.11,7.94-.92,10.39,4.75h-33.3c6.63-5,12.8-8,20-8.9Z"/><path class="cls-2" d="M560,451.05c10.76-7.45,16.3-4.92,20.48,11.95-6.24-8.38-11.47-14.44-20.57-12.05Z"/><path class="cls-3" d="M1011.29,723.12c-18.57,2.19-385.92,42-385.92,42s-433.67,46.8-442.83,47.66c29.13-.84,188.85-13.15,230.54-16.25,5.15-.38,9.37-.11,13.57,4.38,45.86,49,97.42,91.36,152.23,129.94,6.79,4.78,11.16,5.17,18.21.18,64.08-45.31,123.64-95.65,175-155.23,3.27-3.79,6.63-5.74,11.81-6.11,72.88-5.21,145.73-10.8,218.61-16,19.89-1.41,19.48-1,19.84-20C1022.53,725,1020.48,722,1011.29,723.12ZM686.06,820.36c-28.65,26.55-59.23,50.77-90.65,73.95-4.29,3.17-7.46,5.34-13.13,1.2-40.75-29.72-79.62-61.6-115.34-97.26-1-1-1.7-2.35-3.65-5.11l269.36-19.78C717.14,791.28,701.66,805.91,686.06,820.36Z"/><path class="cls-4" d="M876.42,434.49C811.35,413.57,745,400,676.3,402.26c-26.4.86-53.42,1.21-78.27,11.9C570.81,425.87,544.19,439,517.4,451.7c-2.75,1.31-7,1.4-7.54,5.4,12.49,5,23.71,2.08,34.75-4.24a284.26,284.26,0,0,1,26.19-13.1c17.81-7.86,34-19.73,53.2-24,28.86-6.39,58.23-5.76,87.47-3.21,24.8,2.16,24.63,2.58,19.82,27.43-1.08,5.63-2.86,8.8-9.35,9.4-11.89,1.11-23.68,3.3-35.52,5C752.16,455.78,817,447.9,882,438.79,881,435.53,878.61,435.2,876.42,434.49Zm-71.62-2.78c-.25,3.6-4.34,4.29-7.21,4.88-16.69,3.49-33.44,6.7-50.17,10-5.25.44-7.53-1.43-6.12-6.79a11.14,11.14,0,0,0,.23-1.15C745,414.91,745,414.86,769,419.56c9.5,1.87,19,3.8,28.39,6.22C800.42,426.57,805.11,427.22,804.8,431.71Z"/><path class="cls-5" d="M263.91,465.36c1.83,20.53,1.81,19.86,21.48,15,9.08-2.22,10.66-6.16,9.54-14.5-3.1-23.27-3.05-46.76-4.3-70.16-.57-10.78,3.39-16.34,12.62-20.6,12.72-5.86,24.8-13.08,37.42-19.17,96.65-46.64,198.21-67.67,305.49-57.14,90.92,8.92,175.44,38.6,256.12,80.49,7,3.64,6.6,8.57,6.64,14.37.11,18.19.13,18.19,18.73,19.88a27.57,27.57,0,0,1,4.65.5c5.69,1.51,7.24-.61,7.61-6.39,2.68-42.24,2.81-42.23-34.73-61.32-1.39-.71-2.79-1.38-4.19-2.08-90.36-45.11-185.1-74.51-286.64-78.43-110.71-4.26-214,23.21-311.52,74.61-43.73,23.05-43.8,22.93-42.44,80.17C261.14,430.31,262.35,447.85,263.91,465.36Z"/><path class="cls-5" d="M950.28,485.84c-7.76-15.39-15.92-30.88-4.11-48.58-3.11-.47-4.62-.66-6.13-.94-17.67-3.2-33.57,4.8-50.33,7.58C803.62,458.19,716.79,465.11,629.59,467c-39.83.88-79.72,2.55-119.5-2-19.9-2.28-40.29-1.87-59.31,3-8.24,2.12-14.1.72-20.77-.79a82.59,82.59,0,0,0-59,7.95c-7.75,4.14-15,7.64-24.35,9.56-34.18,7-66.12,20.76-93.59,43.19-4.28,3.49-8.13,7.49-13.55,12.53,18.17,2.44,12.82,15.9,15.09,25.11,2.6,10.53,1.21,20.66-12.51,28.77l38.34-2.88c1.46-2.58-.8-3.08-2.25-4-16.2,1.17-13.41-11.8-15.22-20.93-1.2-6-3.55-13.56-1.09-18.08,2.72-5,9.59,2.83,15,.81a10.87,10.87,0,0,0,1.52-1.16L259.05,537.9c22.82-13.16,46.55-17,70.33-20.74,7.29-1.15.26,6.56,4.52,7.19,31.13-51.1,106.48-62,150.49-5.94,3.91-8-5.73-12.74-5.41-19.89,64.29-5.51,128.17-10.57,192-16.64,31-2.94,62.63-.71,93.86-12.48-23.74,28.4-28.86,38-27.67,50.47,30.44-50.7,76-60,130.17-45.07-.91-7.4-8.32-7-11.89-13.3,18.56,7.28,35.6,1.95,52.48.65,12.46-1,18.74,3.9,23.57,15.17H915.33c-5.46,0-7.35,4.12-8.43,8.27s3.22,4.4,5.69,5.6c19.11,9.26,36.1,20.77,44.6,44.27C962.88,515.73,957.75,500.68,950.28,485.84Z"/><path class="cls-5" d="M198.25,620.72c-21.41,1.58-21.14,1.95-20.39,23.77.22,6.37,1.86,7.67,8.25,6.91C223,647,296.79,639.12,296.79,639.12S897.45,579.5,1010.85,567C1010.79,562.69,288.68,614,198.25,620.72Z"/><path class="cls-5" d="M534,570.43c36.15-3.48,72.37-6.37,108.55-9.57,16.84-1.48,33.66-3.2,50.49-4.81-4.33-2.23-8.56-2.24-12.8-2.23-41,.15-82.09-.51-123.08.86-15.65.52-26.42-3.37-35-16.56-6.4-9.77-15-18.12-22.58-27.1l-1.58,1.78c7.7,16.57,15.67,33,22.94,49.77C523.62,568.87,526.92,571.11,534,570.43Z"/><path class="cls-3" d="M190.54,796l-2.6-25.88,5.08-.51,2.09,20.8,18-1.81.51,5.08Z"/><path class="cls-3" d="M242.24,790.81a15.4,15.4,0,0,1-4.06,0,6.53,6.53,0,0,1-2.76-1.09,5.14,5.14,0,0,1-1.68-2.06,9.42,9.42,0,0,1-.76-3l-1.89-18.85,5.22-.52,1.87,18.63a1.85,1.85,0,0,0,.95,1.55,4.56,4.56,0,0,0,2.56.3l14.71-1.48a4.51,4.51,0,0,0,2.45-.8,1.85,1.85,0,0,0,.63-1.7l-1.87-18.64,5.22-.52,1.89,18.84a9.6,9.6,0,0,1-.15,3.08,5.24,5.24,0,0,1-1.24,2.35,6.57,6.57,0,0,1-2.51,1.62,15.44,15.44,0,0,1-3.94.85Z"/><path class="cls-3" d="M285.6,786.46l-.51-5.08,14.54-1.46a4.54,4.54,0,0,0,2.45-.8,1.87,1.87,0,0,0,.62-1.7l-1.87-18.64,5.22-.52,1.89,18.84a9.6,9.6,0,0,1-.15,3.08,5.32,5.32,0,0,1-1.23,2.35,6.6,6.6,0,0,1-2.51,1.61,15.18,15.18,0,0,1-3.95.86Z"/><path class="cls-3" d="M339.33,781.06a15.4,15.4,0,0,1-4.06,0,6.64,6.64,0,0,1-2.76-1.09,5.06,5.06,0,0,1-1.67-2.06,8.92,8.92,0,0,1-.76-3l-1.19-11.8A9.6,9.6,0,0,1,329,760a5.27,5.27,0,0,1,1.23-2.35,6.56,6.56,0,0,1,2.5-1.61,14.8,14.8,0,0,1,4-.86l14.82-1.49a15.2,15.2,0,0,1,4,0,6.56,6.56,0,0,1,2.78,1.09,5.14,5.14,0,0,1,1.68,2.06,9.42,9.42,0,0,1,.76,3L362,771.68a9,9,0,0,1-.15,3.07,5.07,5.07,0,0,1-1.23,2.35,6.46,6.46,0,0,1-2.51,1.62,15,15,0,0,1-3.94.85Zm-4.06-6.92a1.84,1.84,0,0,0,1,1.55,4.52,4.52,0,0,0,2.55.3l14.89-1.5a4.54,4.54,0,0,0,2.45-.79,1.88,1.88,0,0,0,.63-1.71l-1.15-11.38a1.85,1.85,0,0,0-1-1.55,4.56,4.56,0,0,0-2.56-.3l-14.88,1.5a4.48,4.48,0,0,0-2.45.79,1.88,1.88,0,0,0-.63,1.71Z"/><path class="cls-3" d="M384.55,776.52l-.51-5.08,22.41-2.25a4.48,4.48,0,0,0,2.45-.79,1.88,1.88,0,0,0,.63-1.71l-.27-2.66a1.85,1.85,0,0,0-.95-1.55,4.47,4.47,0,0,0-2.56-.29l-14.92,1.49q-7.5.77-8.05-4.81l-.33-3.26q-.49-5,6.92-5.72l22.46-2.25.51,5.08L389.71,755a3.59,3.59,0,0,0-1.55.38.75.75,0,0,0-.35.76l.15,1.54a1,1,0,0,0,.51.86,3.49,3.49,0,0,0,1.64.1l15.1-1.52a14.83,14.83,0,0,1,4,.06,6.44,6.44,0,0,1,2.77,1.08,5.14,5.14,0,0,1,1.68,2.06,9.16,9.16,0,0,1,.76,3l.31,3.09a9.55,9.55,0,0,1-.15,3.07,5.27,5.27,0,0,1-1.23,2.35,6.61,6.61,0,0,1-2.51,1.62,15.2,15.2,0,0,1-3.95.85Z"/><path class="cls-3" d="M467.77,768.16l-2.6-25.88,23.36-2.35a15.67,15.67,0,0,1,4,.06,6.43,6.43,0,0,1,2.78,1.08,5.3,5.3,0,0,1,1.68,2.06,9.49,9.49,0,0,1,.76,3l.33,3.36a9,9,0,0,1-.15,3.07,5.11,5.11,0,0,1-1.23,2.36,6.45,6.45,0,0,1-2.51,1.61,15.51,15.51,0,0,1-3.94.86L472,759.21l.85,8.44Zm3.76-13.68,18.32-1.83a4.54,4.54,0,0,0,2.45-.8,1.88,1.88,0,0,0,.62-1.71l-.33-3.29a1.86,1.86,0,0,0-.95-1.55,4.48,4.48,0,0,0-2.56-.29l-18.32,1.84Z"/><path class="cls-3" d="M528.79,762a15.4,15.4,0,0,1-4.06,0A6.53,6.53,0,0,1,522,760.9a5.21,5.21,0,0,1-1.68-2.06,9.5,9.5,0,0,1-.76-3l-1.18-11.81a9,9,0,0,1,.15-3.07,5.16,5.16,0,0,1,1.23-2.36,6.59,6.59,0,0,1,2.49-1.61,15.38,15.38,0,0,1,4-.86L541,734.67a15.28,15.28,0,0,1,4,.05,6.43,6.43,0,0,1,2.78,1.08,5.3,5.3,0,0,1,1.68,2.06,9.49,9.49,0,0,1,.76,3l1.18,11.8a9.06,9.06,0,0,1-.15,3.08,5.32,5.32,0,0,1-1.23,2.35,6.52,6.52,0,0,1-2.51,1.61,15.08,15.08,0,0,1-3.95.86Zm-4.06-6.92a1.85,1.85,0,0,0,.95,1.55,4.48,4.48,0,0,0,2.56.29l14.89-1.49a4.54,4.54,0,0,0,2.45-.8,1.84,1.84,0,0,0,.62-1.7l-1.14-11.39a1.86,1.86,0,0,0-.95-1.55,4.58,4.58,0,0,0-2.56-.29l-14.89,1.5a4.54,4.54,0,0,0-2.45.79,1.84,1.84,0,0,0-.62,1.71Z"/><path class="cls-3" d="M574.14,757.48l-2.59-25.88,5.07-.51,2.09,20.8,18-1.81.51,5.08Z"/><path class="cls-3" d="M617.89,753.09,616.18,736a8.47,8.47,0,0,1,1.81-6.77q2.24-2.52,7.29-3l11.94-1.2c3.36-.33,5.94.17,7.74,1.53a8.43,8.43,0,0,1,3.12,6.26l1.72,17.1-5.08.51-.83-8.27-21.75,2.18.83,8.27Zm3.78-13.5,21.75-2.19-.41-4.1a5.27,5.27,0,0,0-.4-1.6,2.46,2.46,0,0,0-.92-1.08,3.87,3.87,0,0,0-1.59-.55,10.84,10.84,0,0,0-2.41,0l-11.87,1.19a9.9,9.9,0,0,0-2.36.47,3.76,3.76,0,0,0-1.45.85,2.4,2.4,0,0,0-.69,1.24,5.16,5.16,0,0,0-.07,1.65Z"/><path class="cls-3" d="M671.87,747.67l-2.6-25.88,23.36-2.35a14.83,14.83,0,0,1,4,.06,6.48,6.48,0,0,1,2.78,1.08,5.2,5.2,0,0,1,1.67,2.06,9.16,9.16,0,0,1,.76,3l.26,2.56a9.26,9.26,0,0,1-.15,3.07,5.3,5.3,0,0,1-1.23,2.36,6.6,6.6,0,0,1-2.51,1.61,15.18,15.18,0,0,1-4,.86l-3.92.39,14.17,7.92-9.11.91-13.19-8-6.23.62.93,9.25Zm3.69-14.31,18.32-1.84a4.54,4.54,0,0,0,2.45-.79A1.85,1.85,0,0,0,697,729l-.26-2.66a1.85,1.85,0,0,0-1-1.55,4.45,4.45,0,0,0-2.55-.29l-18.32,1.83Z"/><path class="cls-3" d="M725,742.34l-2.6-25.89,5.08-.51,2.6,25.89Z"/><path class="cls-3" d="M754.46,739.38a2.57,2.57,0,0,1-3-2.32,2.7,2.7,0,0,1,.18-1.31,3.14,3.14,0,0,1,.81-1.16l20-18-22.38,2.24-.51-5.07,29.42-3a2.48,2.48,0,0,1,2.09.6,2.79,2.79,0,0,1,.7,3,3,3,0,0,1-.79,1.16l-20,18,22.59-2.27.51,5.08Z"/><path class="cls-3" d="M805.74,734.23,804,717.14a8.47,8.47,0,0,1,1.82-6.77q2.24-2.52,7.28-3l11.94-1.2q5.06-.51,7.75,1.53a8.43,8.43,0,0,1,3.12,6.26L837.65,731l-5.08.52-.83-8.27L810,725.45l.83,8.27Zm3.77-13.51,21.75-2.18-.41-4.1a5,5,0,0,0-.39-1.6,2.52,2.52,0,0,0-.92-1.08,3.78,3.78,0,0,0-1.6-.55,11.3,11.3,0,0,0-2.4,0l-11.88,1.2a10.38,10.38,0,0,0-2.35.46,3.82,3.82,0,0,0-1.46.86,2.52,2.52,0,0,0-.69,1.23,5.57,5.57,0,0,0-.06,1.66Z"/><path class="cls-3" d="M859.71,728.81l-2.6-25.89,23.33-2.34a14.83,14.83,0,0,1,4,.06,6.48,6.48,0,0,1,2.78,1.08,5.28,5.28,0,0,1,1.67,2.06,9.23,9.23,0,0,1,.76,3l1.19,11.81a9.54,9.54,0,0,1-.15,3.07A5.35,5.35,0,0,1,889.5,724a6.6,6.6,0,0,1-2.51,1.61,15.6,15.6,0,0,1-4,.86Zm4.57-5.59,18.28-1.84a4.48,4.48,0,0,0,2.45-.79,1.86,1.86,0,0,0,.63-1.71L884.5,707.5a1.85,1.85,0,0,0-1-1.55,4.45,4.45,0,0,0-2.55-.29l-18.29,1.83Z"/><path class="cls-3" d="M922,722.56a14.94,14.94,0,0,1-4.06-.06,6.5,6.5,0,0,1-2.76-1.08,5.3,5.3,0,0,1-1.68-2.06,9.23,9.23,0,0,1-.75-3l-1.19-11.8a9.62,9.62,0,0,1,.15-3.08,5.32,5.32,0,0,1,1.23-2.35,6.56,6.56,0,0,1,2.5-1.61,15.2,15.2,0,0,1,4-.86l14.82-1.49a15.16,15.16,0,0,1,4,.06,6.43,6.43,0,0,1,2.78,1.08,5.21,5.21,0,0,1,1.68,2.06,9.49,9.49,0,0,1,.76,3l1.18,11.8a9.08,9.08,0,0,1-.15,3.08,5.17,5.17,0,0,1-1.23,2.35,6.45,6.45,0,0,1-2.51,1.61,15.08,15.08,0,0,1-4,.86Zm-4.06-6.92a1.87,1.87,0,0,0,1,1.55,4.45,4.45,0,0,0,2.55.29L936.33,716a4.54,4.54,0,0,0,2.45-.8,1.83,1.83,0,0,0,.62-1.71l-1.14-11.38a1.86,1.86,0,0,0-1-1.55,4.48,4.48,0,0,0-2.56-.29l-14.89,1.49a4.54,4.54,0,0,0-2.45.8,1.88,1.88,0,0,0-.62,1.71Z"/><path class="cls-3" d="M967.21,718l-.51-5.08,22.41-2.25a4.51,4.51,0,0,0,2.45-.8,1.86,1.86,0,0,0,.63-1.71l-.27-2.66A1.86,1.86,0,0,0,991,704a4.48,4.48,0,0,0-2.56-.29l-14.92,1.5q-7.5.75-8.06-4.82l-.32-3.26q-.51-5,6.92-5.72l22.46-2.25.51,5.08-22.63,2.27a3.7,3.7,0,0,0-1.55.39.74.74,0,0,0-.35.76l.15,1.54a1,1,0,0,0,.51.85,3.34,3.34,0,0,0,1.64.1l15.1-1.51a15.2,15.2,0,0,1,4,0,6.43,6.43,0,0,1,2.78,1.08,5.21,5.21,0,0,1,1.68,2.06,9.49,9.49,0,0,1,.76,3l.31,3.08a9.62,9.62,0,0,1-.15,3.08A5.29,5.29,0,0,1,996,713.3a6.48,6.48,0,0,1-2.5,1.61,15.18,15.18,0,0,1-3.95.86Z"/><path class="cls-5" d="M347.89,665.47l-29.31,77.95-109.68,11q-9,.9-13.83-2.86a12.4,12.4,0,0,1-4.51-8.73,14.91,14.91,0,0,1,.94-7.05l11.17-30.21q4-11,19.7-12.59l84-8.43,1.91-5.67a4.72,4.72,0,0,0,.29-2q-.4-4-7.76-3.3l-89.74,9,8.59-23,110.5-11.1q17.32-1.74,18.56,10.6A13.5,13.5,0,0,1,347.89,665.47ZM297.8,707.53l-56.23,5.65q-7.68.77-9.64,6l-1.72,4.23a7.53,7.53,0,0,0-.37,2.9q.41,3.9,5.95,3.34L291.7,724Z"/><path class="cls-5" d="M495.69,703.53l-8.59,23L364.67,738.79l35.14-97.23L435.12,638l-27.05,74.32Z"/><path class="cls-5" d="M667.24,634.57l-9.94,26q-3.66,9.54-14.78,12.3l-86.95,8.73-15,39.49-35.48,3.44,36.77-97.51,102.81-10.32q9.81-1,16.52,1.69t7.32,8.84A15.8,15.8,0,0,1,667.24,634.57ZM629,645.11a2.78,2.78,0,0,0,.07-1q-.37-3.72-8.55-2.9l-51.81,5.2L564,658.93l53-5.32c3.81-.38,6.5-1,8.07-1.75a5.51,5.51,0,0,0,2.64-3.32Z"/><path class="cls-5" d="M844.71,596.64,807.63,694.3,772,697.88l15-39.48L721.47,665l-14.86,39.47L671,708l36.92-97.65,35.79-3.59-13.1,35.53,65.22-6.55,13.43-35.57Z"/><path class="cls-5" d="M1009.72,599,980.4,677,870.72,688q-9,.9-13.82-2.86a12.36,12.36,0,0,1-4.51-8.73,14.79,14.79,0,0,1,.94-7l11.16-30.21q4-11,19.71-12.58l84-8.44,1.91-5.66a4.65,4.65,0,0,0,.3-2q-.4-4-7.76-3.3l-89.74,9,8.59-23L992,582.08q17.32-1.74,18.57,10.6A13.63,13.63,0,0,1,1009.72,599Zm-50.1,42.06-56.22,5.65q-7.7.78-9.64,6L892,656.92a7.17,7.17,0,0,0-.37,2.9c.26,2.6,2.24,3.72,6,3.34l55.9-5.61Z"/></g></svg>