<svg id="Capa_1" data-name="Capa 1" xmlns="http://www.w3.org/2000/svg" viewBox="0 0 1200 1200"><defs><style>.cls-1{fill:#eb0203;}.cls-2{fill:#d80304;}.cls-3,.cls-6{fill:#fc0101;}.cls-4{fill:#fa0102;}.cls-5,.cls-8{fill:#1d1d1b;}.cls-6{font-size:47.96px;font-family:VenusRising-Regular, Venus Rising;letter-spacing:0.48em;}.cls-7{letter-spacing:0.5em;}.cls-8{font-size:159.37px;font-family:Supreme;letter-spacing:0.1em;}</style></defs><path class="cls-1" d="M542.34,396.22c.2,2.73-1.36,6,4.12,5.8,4.8-.16,10.81-1.25,14.16,6.47H515.24c9-6.85,17.45-10.86,27.21-12.13Z"/><path class="cls-2" d="M542.45,396.36c14.66-10.14,22.21-6.7,27.91,16.28-8.51-11.42-15.63-19.67-28-16.41Z"/><path class="cls-3" d="M1157.22,767c-25.3,3-525.77,57.18-525.77,57.18S40.65,888,28.16,889.12C67.85,888,285.45,871.22,342.25,867c7-.52,12.76-.16,18.48,6,62.48,66.76,132.72,124.46,207.39,177,9.25,6.51,15.2,7,24.81.25,87.3-61.73,168.44-130.31,238.44-211.48,4.45-5.17,9-7.82,16.09-8.33,99.28-7.1,198.53-14.71,297.82-21.78,27.1-1.93,26.54-1.32,27-27.26C1172.53,769.57,1169.74,765.55,1157.22,767ZM714.14,899.5c-39,36.16-80.7,69.16-123.5,100.74-5.85,4.31-10.16,7.28-17.89,1.64C517.24,961.39,464.28,918,415.62,869.37c-1.38-1.38-2.32-3.21-5-7l367-26.95C756.48,859.87,735.39,879.8,714.14,899.5Z"/><path class="cls-4" d="M973.47,373.81c-88.65-28.51-179.05-47-272.62-43.92-36,1.18-72.79,1.65-106.63,16.21-37.09,16-73.36,33.82-109.85,51.15-3.75,1.78-9.53,1.9-10.27,7.35,17,6.79,32.29,2.84,47.34-5.77A384,384,0,0,1,557.11,381c24.26-10.71,46.28-26.88,72.48-32.68,39.31-8.71,79.33-7.84,119.16-4.38,33.79,2.94,33.55,3.52,27,37.37-1.48,7.67-3.9,12-12.73,12.82-16.21,1.5-32.28,4.48-48.4,6.85,89.56,1.85,178-8.89,266.44-21.3C979.74,375.22,976.46,374.77,973.47,373.81ZM875.9,370c-.33,4.89-5.91,5.83-9.82,6.65-22.74,4.75-45.56,9.11-68.35,13.61-7.15.59-10.26-1.95-8.34-9.26a13.92,13.92,0,0,0,.32-1.56c4.71-32.33,4.73-32.41,37.42-26,13,2.54,25.91,5.17,38.68,8.47C869.94,363,876.32,363.9,875.9,370Z"/><path class="cls-5" d="M139,415.85c2.5,28,2.46,27.06,29.26,20.5,12.37-3,14.52-8.4,13-19.76-4.24-31.7-4.17-63.7-5.86-95.59-.79-14.68,4.6-22.25,17.19-28.06,17.32-8,33.79-17.81,51-26.11,131.67-63.54,270-92.2,416.17-77.85,123.88,12.16,239,52.59,348.94,109.66,9.55,5,9,11.68,9,19.58.15,24.78.17,24.78,25.51,27.08a38.08,38.08,0,0,1,6.35.68c7.75,2.06,9.86-.83,10.36-8.7,3.65-57.54,3.83-57.53-47.31-83.55-1.89-1-3.81-1.88-5.71-2.83-123.1-61.45-252.18-101.51-390.5-106.84-150.83-5.81-291.57,31.61-424.4,101.63-59.58,31.42-59.67,31.25-57.82,109.23C135.25,368.11,136.89,392,139,415.85Z"/><path class="cls-5" d="M1074.09,443.76c-10.57-21-21.68-42.07-5.59-66.19-4.23-.64-6.3-.9-8.35-1.27-24.07-4.37-45.74,6.53-68.57,10.32C874.3,406.09,756,415.51,637.2,418.13c-54.26,1.2-108.6,3.48-162.79-2.73-27.12-3.11-54.9-2.56-80.8,4.11-11.23,2.89-19.21,1-28.3-1.08-28.26-6.38-54.92-2.72-80.34,10.84-10.56,5.63-20.41,10.4-33.18,13-46.56,9.55-90.08,28.27-127.5,58.83-5.82,4.76-11.08,10.22-18.46,17.08,24.76,3.32,17.47,21.66,20.56,34.2,3.54,14.34,1.65,28.15-17,39.2l52.23-3.93c2-3.51-1.09-4.19-3.07-5.49-22.07,1.6-18.26-16.07-20.73-28.51-1.63-8.2-4.84-18.47-1.48-24.63,3.69-6.78,13.06,3.86,20.38,1.1a14.74,14.74,0,0,0,2.07-1.58L132.4,514.68c31.08-17.93,63.41-23.15,95.81-28.25,9.94-1.57.35,8.93,6.16,9.8,42.41-69.63,145.06-84.43,205-8.11,5.33-11-7.8-17.34-7.36-27.09,87.57-7.51,174.6-14.4,261.5-22.66,42.2-4,85.33-1,127.88-17-32.34,38.69-39.31,51.78-37.7,68.76,41.48-69.08,103.58-81.7,177.35-61.41-1.25-10.07-11.35-9.56-16.21-18.11,25.29,9.92,48.5,2.65,71.5.88,17-1.31,25.53,5.31,32.11,20.67-8.23,0-15.1,0-22,0-7.45,0-10,5.62-11.49,11.26-1.52,5.85,4.38,6,7.75,7.64,26,12.61,49.19,28.29,60.76,60.3C1091.27,484.48,1084.28,464,1074.09,443.76Z"/><path class="cls-5" d="M49.56,627.51c-29.17,2.16-28.79,2.66-27.77,32.38.29,8.69,2.53,10.45,11.24,9.41,50.21-6,150.78-16.72,150.78-16.72s818.31-81.22,972.81-98.22C1156.53,548.46,172.77,618.4,49.56,627.51Z"/><path class="cls-5" d="M507,559c49.26-4.74,98.59-8.68,147.88-13,22.95-2,45.87-4.37,68.8-6.56-5.91-3-11.68-3-17.44-3-55.9.19-111.84-.7-167.69,1.16-21.32.7-36-4.59-47.74-22.56-8.71-13.31-20.39-24.68-30.75-36.92l-2.16,2.43c10.49,22.57,21.35,45,31.25,67.79C492.83,556.87,497.33,559.93,507,559Z"/><text class="cls-6" transform="translate(35.91 866.62) rotate(-5.73)">l<tspan class="cls-7" x="59.18" y="0">ujos polarizados</tspan></text><text class="cls-8" transform="translate(48.01 810.98) rotate(-5.74) scale(1.4 1)">Alpha</text></svg>